HIERARCHY
ROOT Hips
{
	OFFSET 0.00000 0.00000 0.00000
	CHANNELS 6 Xposition Yposition Zposition Zrotation Yrotation Xrotation 
	JOINT LHipJoint
	{
		OFFSET 0 0 0
		CHANNELS 3 Zrotation Yrotation Xrotation
		JOINT LeftUpLeg
		{
			OFFSET 1.53927 -1.56553 0.51726
			CHANNELS 3 Zrotation Yrotation Xrotation
			JOINT LeftLeg
			{
				OFFSET 2.38199 -6.54447 0.00000
				CHANNELS 3 Zrotation Yrotation Xrotation
				JOINT LeftFoot
				{
					OFFSET 2.35499 -6.47028 0.00000
					CHANNELS 3 Zrotation Yrotation Xrotation
					JOINT LeftToeBase
					{
						OFFSET 0.13641 -0.37478 1.84251
						CHANNELS 3 Zrotation Yrotation Xrotation
						End Site
						{
							OFFSET 0.00000 -0.00000 0.95212
						}
					}
				}
			}
		}
	}
	JOINT RHipJoint
	{
		OFFSET 0 0 0
		CHANNELS 3 Zrotation Yrotation Xrotation
		JOINT RightUpLeg
		{
			OFFSET -1.43919 -1.56553 0.51726
			CHANNELS 3 Zrotation Yrotation Xrotation
			JOINT RightLeg
			{
				OFFSET -2.34860 -6.45274 0.00000
				CHANNELS 3 Zrotation Yrotation Xrotation
				JOINT RightFoot
				{
					OFFSET -2.25563 -6.19730 0.00000
					CHANNELS 3 Zrotation Yrotation Xrotation
					JOINT RightToeBase
					{
						OFFSET -0.19755 -0.54277 1.84912
						CHANNELS 3 Zrotation Yrotation Xrotation
						End Site
						{
							OFFSET -0.00000 -0.00000 0.97032
						}
					}
				}
			}
		}
	}
	JOINT LowerBack
	{
		OFFSET 0 0 0
		CHANNELS 3 Zrotation Yrotation Xrotation
		JOINT Spine
		{
			OFFSET -0.06402 1.88434 -0.00445
			CHANNELS 3 Zrotation Yrotation Xrotation
			JOINT Spine1
			{
				OFFSET 0.00756 1.88511 0.04237
				CHANNELS 3 Zrotation Yrotation Xrotation
				JOINT Neck
				{
					OFFSET 0 0 0
					CHANNELS 3 Zrotation Yrotation Xrotation
					JOINT Neck1
					{
						OFFSET -0.06230 1.34710 0.03308
						CHANNELS 3 Zrotation Yrotation Xrotation
						JOINT Head
						{
							OFFSET -0.02442 1.34501 -0.13654
							CHANNELS 3 Zrotation Yrotation Xrotation
							End Site
							{
								OFFSET -0.00508 1.35584 -0.05075
							}
						}
					}
				}
				JOINT LeftShoulder
				{
					OFFSET 0 0 0
					CHANNELS 3 Zrotation Yrotation Xrotation
					JOINT LeftArm
					{
						OFFSET 2.76911 0.54460 0.39412
						CHANNELS 3 Zrotation Yrotation Xrotation
						JOINT LeftForeArm
						{
							OFFSET 4.40919 -0.00000 -0.00000
							CHANNELS 3 Zrotation Yrotation Xrotation
							JOINT LeftHand
							{
								OFFSET 3.03857 -0.00000 -0.00000
								CHANNELS 3 Zrotation Yrotation Xrotation
								JOINT LeftFingerBase
								{
									OFFSET 0 0 0
									CHANNELS 3 Zrotation Yrotation Xrotation
									JOINT LeftHandIndex1
									{
										OFFSET 0.52321 -0.00000 -0.00000
										CHANNELS 3 Zrotation Yrotation Xrotation
										End Site
										{
											OFFSET 0.42182 -0.00000 -0.00000
										}
									}
								}
								JOINT LThumb
								{
									OFFSET 0 0 0
									CHANNELS 3 Zrotation Yrotation Xrotation
									End Site
									{
										OFFSET 0.42826 -0.00000 0.42826
									}
								}
							}
						}
					}
				}
				JOINT RightShoulder
				{
					OFFSET 0 0 0
					CHANNELS 3 Zrotation Yrotation Xrotation
					JOINT RightArm
					{
						OFFSET -2.99050 0.75949 0.48975
						CHANNELS 3 Zrotation Yrotation Xrotation
						JOINT RightForeArm
						{
							OFFSET -4.61969 -0.00000 -0.00000
							CHANNELS 3 Zrotation Yrotation Xrotation
							JOINT RightHand
							{
								OFFSET -3.09382 -0.00000 -0.00000
								CHANNELS 3 Zrotation Yrotation Xrotation
								JOINT RightFingerBase
								{
									OFFSET 0 0 0
									CHANNELS 3 Zrotation Yrotation Xrotation
									JOINT RightHandIndex1
									{
										OFFSET -0.50090 -0.00000 -0.00000
										CHANNELS 3 Zrotation Yrotation Xrotation
										End Site
										{
											OFFSET -0.40384 -0.00000 -0.00000
										}
									}
								}
								JOINT RThumb
								{
									OFFSET 0 0 0
									CHANNELS 3 Zrotation Yrotation Xrotation
									End Site
									{
										OFFSET -0.41000 -0.00000 0.41000
									}
								}
							}
						}
					}
				}
			}
		}
	}
}
MOTION
Frames: 11
Frame Time: .0083333
16.3602 13.8145 -4.2373 -370.2520 -68.9634 382.0310 0.0000 0.0000 0.0000 12.3520 -26.2482 -38.8222 11.3366 18.0959 63.8701 1.7024 10.6723 -30.4887 0.7202 -5.4229 -15.1187 0.0000 0.0000 0.0000 -1.5517 24.5917 -45.9340 -10.2231 -17.5334 60.2315 -2.0131 0.9199 -26.5896 -1.1797 6.8934 -19.3998 -5.9254 -1.8236 30.2715 2.1806 -4.3778 7.4787 7.4669 -2.2405 -7.4961 -6.4060 -16.1903 6.0643 25.4309 -19.5890 -34.3292 11.2541 -12.4641 -8.0379 0.0000 0.0000 0.0000 -13.1130 -24.3807 -19.1744 163.7919 -25.8020 -116.2639 -0.0000 -0.0000 14.1455 65.4559 -47.0647 -58.0464 -7.1250 0.0000 -0.0000 10.1693 -38.1903 -14.3835 0.0000 0.0000 0.0000 13.8645 17.8243 -54.4536 -163.8560 25.7155 -116.2918 0.0000 -0.0000 -29.5002 -49.5861 -38.0008 35.8691 7.1250 -0.0000 -0.0000 -36.6924 -78.2046 29.0394
16.4097 13.8043 -4.1418 -370.1870 -69.3991 381.8960 0.0000 0.0000 0.0000 11.7129 -25.8483 -38.3783 11.2166 18.0394 63.4829 1.7385 11.4641 -31.3027 0.9327 -6.1519 -17.2258 0.0000 0.0000 0.0000 -2.1398 24.6193 -45.8465 -10.1211 -17.4774 59.8922 -1.9774 0.7648 -26.3937 -1.1307 6.7536 -18.9873 -6.1162 -1.9042 30.3944 2.2446 -4.5243 7.0972 7.7344 -2.2614 -7.9442 -6.3605 -16.4801 6.0032 25.2343 -20.0699 -34.3468 11.1464 -12.6675 -7.9864 -0.0000 0.0000 0.0000 -12.7804 -23.8809 -19.2452 163.8930 -25.6656 -116.3078 -0.0000 -0.0000 13.6895 65.5156 -47.6184 -58.3459 -7.1250 0.0000 -0.0000 9.8441 -38.6505 -13.9282 -0.0000 0.0000 0.0000 14.5277 17.6267 -54.2953 -163.9243 25.6231 -116.3214 0.0000 -0.0000 -30.4005 -50.3147 -37.6674 36.3690 7.1250 -0.0000 -0.0000 -38.7560 -78.0246 30.6146
16.4526 13.8052 -4.0505 -370.2020 -69.8208 381.7110 0.0000 0.0000 0.0000 11.1119 -25.5090 -37.8118 11.1539 18.0096 63.2803 1.7873 11.7113 -31.7881 1.0520 -6.5220 -18.3069 0.0000 0.0000 0.0000 -2.5807 24.8099 -45.4708 -10.0002 -17.4100 59.4891 -1.9503 0.4259 -26.3122 -1.0856 6.6221 -18.6005 -6.3780 -1.9847 29.9086 2.2563 -4.6840 7.2678 7.9001 -2.3729 -7.4657 -6.2166 -16.5674 6.2092 25.3785 -20.2079 -35.2773 11.3489 -12.8150 -8.3238 -0.0000 0.0000 0.0000 -11.9910 -23.4774 -20.0607 164.0171 -25.4974 -116.3614 -0.0000 -0.0000 12.9338 65.1510 -48.2675 -58.1777 -7.1250 0.0000 -0.0000 9.2833 -38.8922 -13.1303 -0.0000 0.0000 0.0000 15.1865 17.8120 -54.5877 -164.1134 25.3667 -116.4027 0.0000 -0.0000 -31.1715 -51.6527 -36.2874 36.8011 7.1250 -0.0000 -0.0000 -41.2765 -76.9016 31.8324
16.4941 13.8084 -3.9593 -370.4220 -70.2075 381.7180 0.0000 0.0000 0.0000 10.6511 -25.1678 -37.4467 11.1734 18.0189 63.3433 1.8872 11.4309 -32.1844 1.1311 -6.7547 -18.9906 0.0000 0.0000 0.0000 -2.9277 25.0789 -45.0403 -9.8614 -17.3312 59.0243 -1.9283 0.0580 -26.2781 -1.0597 6.5451 -18.3744 -6.6191 -2.0438 29.8781 2.3100 -4.8167 7.0270 8.1583 -2.4075 -7.6753 -5.9818 -16.6648 7.0003 25.2571 -20.3893 -36.1289 11.5352 -12.9388 -8.7939 -0.0000 0.0000 0.0000 -11.6327 -22.6707 -20.1685 164.0889 -25.4000 -116.3922 -0.0000 -0.0000 12.6580 64.3435 -48.3150 -57.2518 -7.1250 0.0000 -0.0000 8.9348 -38.3967 -12.6213 -0.0000 0.0000 0.0000 15.9041 17.4129 -54.4413 -164.4483 24.9090 -116.5450 0.0000 -0.0000 -32.5467 -54.8408 -34.7428 38.9763 7.1250 -0.0000 -0.0000 -49.3146 -75.9469 37.6549
16.5435 13.8012 -3.8662 -370.6010 -70.6475 381.8680 0.0000 0.0000 0.0000 10.2483 -24.6904 -37.6841 11.2982 18.0779 63.7461 1.9520 11.1953 -32.4010 1.2638 -7.1261 -20.0895 0.0000 0.0000 0.0000 -3.4849 25.3410 -44.9446 -9.7204 -17.2496 58.5498 -1.8926 -0.0787 -26.0765 -1.0111 6.3977 -17.9429 -6.8937 -2.0334 29.7790 2.4568 -4.8639 6.9195 8.5003 -2.4203 -7.7012 -5.6710 -16.8009 6.6601 25.0653 -20.6428 -36.5554 11.4527 -13.0817 -8.9171 -0.0000 0.0000 0.0000 -10.9557 -22.1545 -21.3655 164.8393 -24.3696 -116.7080 -0.0000 -0.0000 8.7270 61.2205 -49.8958 -54.3163 -7.1250 0.0000 -0.0000 6.7308 -37.6427 -9.4709 -0.0000 0.0000 0.0000 16.1430 17.3815 -54.3590 -164.6127 24.6828 -116.6140 0.0000 -0.0000 -33.2137 -53.1834 -37.8203 39.3233 7.1250 -0.0000 -0.0000 -49.6582 -78.6733 40.3930
16.5907 13.7956 -3.7769 -370.7620 -71.1214 381.9900 0.0000 0.0000 0.0000 9.7745 -24.0698 -38.0781 11.4905 18.1669 64.3645 2.0259 10.7029 -32.4920 1.3168 -7.2682 -20.5125 0.0000 0.0000 0.0000 -4.0789 25.7329 -44.7929 -9.5667 -17.1589 58.0301 -1.8747 -0.0209 -25.9333 -0.9514 6.2115 -17.3994 -7.2405 -2.0441 29.5219 2.5649 -4.9581 6.9736 8.8292 -2.4822 -7.4534 -5.2859 -16.8481 5.9162 24.7766 -20.7988 -36.8515 11.2602 -13.1733 -8.9649 -0.0000 0.0000 0.0000 -10.6704 -21.4016 -21.4275 164.3991 -24.9766 -116.5243 -0.0000 -0.0000 11.2040 63.0119 -49.1575 -56.0525 -7.1250 0.0000 -0.0000 7.8808 -38.1807 -11.1143 -0.0000 0.0000 0.0000 16.2520 17.9403 -54.3171 -164.5351 24.7897 -116.5815 0.0000 -0.0000 -32.7197 -50.8426 -39.0086 37.7019 7.1250 -0.0000 -0.0000 -42.8848 -79.4755 35.2039
16.6299 13.7974 -3.6889 -370.9080 -71.5209 381.8060 0.0000 0.0000 0.0000 9.1176 -23.4367 -38.1472 11.6942 18.2584 65.0162 2.1258 9.9749 -32.5883 1.2385 -7.0570 -19.8842 0.0000 0.0000 0.0000 -4.4106 26.1456 -44.1548 -9.4031 -17.0602 57.4740 -1.8934 0.0770 -26.0308 -0.9394 6.1734 -17.2885 -7.5038 -2.0433 29.5658 2.5875 -5.0424 7.0117 9.0372 -2.5289 -7.3866 -4.8602 -16.8897 5.3989 24.4392 -20.9514 -37.1634 11.0868 -13.2577 -9.0769 0.0000 0.0000 0.0000 -10.2606 -20.8889 -21.5012 164.0613 -25.4375 -116.3804 -0.0000 -0.0000 13.0902 64.1620 -48.3940 -57.0725 -7.1250 0.0000 -0.0000 8.8132 -38.3381 -12.4463 0.0000 0.0000 0.0000 16.5764 18.2207 -54.1401 -164.4605 24.8923 -116.5501 0.0000 -0.0000 -32.2204 -49.5345 -39.4669 36.6912 7.1250 -0.0000 -0.0000 -38.5494 -79.6862 31.6488
16.6694 13.8008 -3.5958 -371.2150 -72.0090 381.7830 0.0000 0.0000 0.0000 8.4017 -22.6524 -38.2540 11.8875 18.3427 65.6319 2.1277 9.7527 -32.4531 1.1961 -6.9395 -19.5364 0.0000 0.0000 0.0000 -4.6975 26.6131 -43.5001 -9.2255 -16.9507 56.8667 -1.8966 0.0524 -26.0611 -0.9833 6.3118 -17.6919 -7.6563 -2.0138 29.5601 2.5617 -5.0555 6.9730 9.1028 -2.5311 -7.4136 -4.5683 -16.8436 5.3807 24.1117 -20.9826 -37.6179 11.0364 -13.2703 -9.3332 -0.0000 0.0000 0.0000 -9.7165 -20.3464 -21.8717 163.9428 -25.5982 -116.3294 -0.0000 -0.0000 14.0522 64.7139 -47.8310 -57.4876 -7.1250 0.0000 -0.0000 9.3884 -38.2743 -13.2667 -0.0000 0.0000 0.0000 16.9204 18.1605 -53.7388 -164.4483 24.9090 -116.5450 0.0000 -0.0000 -32.3920 -49.4053 -39.5633 36.6219 7.1250 -0.0000 -0.0000 -38.1962 -79.7571 31.3982
16.7114 13.8030 -3.5026 -371.7010 -72.5863 382.1590 0.0000 0.0000 0.0000 7.8019 -21.7386 -38.5634 12.0527 18.4128 66.1558 2.1510 9.4762 -32.4112 1.1236 -6.7330 -18.9268 0.0000 0.0000 0.0000 -5.1497 27.2077 -43.1471 -9.0298 -16.8269 56.1932 -1.8689 -0.0433 -25.9004 -0.9722 6.2773 -17.5911 -7.8609 -1.9458 29.2678 2.6102 -5.0043 6.9219 9.2376 -2.5092 -7.3162 -4.3223 -16.7916 5.1759 23.6398 -21.0582 -38.0061 10.9054 -13.2751 -9.5427 0.0000 -0.0000 0.0000 -9.3475 -19.7042 -22.3652 164.0552 -25.4458 -116.3778 -0.0000 -0.0000 13.9344 64.4663 -47.7700 -57.1722 -7.1250 0.0000 -0.0000 9.3278 -38.0637 -13.1749 0.0000 -0.0000 0.0000 17.1028 18.0192 -53.1952 -164.3674 25.0200 -116.5109 0.0000 -0.0000 -32.4766 -49.3802 -39.2276 36.4021 7.1250 -0.0000 -0.0000 -37.6048 -79.4122 30.6516
16.7544 13.8050 -3.4167 -372.1530 -73.0087 382.5050 0.0000 0.0000 0.0000 7.3174 -21.0308 -38.7637 12.1713 18.4621 66.5306 2.2803 8.7527 -32.7147 0.9838 -6.3134 -17.6964 0.0000 0.0000 0.0000 -5.5581 27.6737 -42.7906 -8.8151 -16.6873 55.4485 -1.8383 0.0082 -25.6694 -0.9013 6.0504 -16.9306 -8.1377 -1.8597 28.9654 2.7553 -4.9427 6.9510 9.5166 -2.4956 -7.1070 -4.2465 -16.7512 4.8020 23.3351 -21.1390 -38.3510 10.8094 -13.2913 -9.6531 0.0000 -0.0000 0.0000 -9.0571 -19.2898 -22.7570 164.1256 -25.3500 -116.4080 -0.0000 -0.0000 13.3990 64.1435 -47.8781 -56.8396 -7.1250 0.0000 -0.0000 9.1312 -37.9337 -12.8908 0.0000 -0.0000 0.0000 17.1243 17.9419 -52.6838 -164.2497 25.1809 -116.4610 0.0000 -0.0000 -32.1402 -49.6052 -38.8090 36.3729 7.1250 -0.0000 -0.0000 -37.8431 -79.0349 30.5851
16.7981 13.8169 -3.3314 -372.5260 -73.1961 382.6400 0.0000 0.0000 0.0000 6.8645 -20.6498 -38.6798 12.2307 18.4865 66.7182 2.3713 8.2789 -32.9576 0.8918 -6.0191 -16.8399 0.0000 0.0000 0.0000 -5.7545 27.9126 -42.1261 -8.5668 -16.5207 54.5794 -1.8191 0.1695 -25.4815 -0.8032 5.7200 -15.9742 -8.2288 -1.8979 28.9572 2.8401 -5.0108 6.9047 9.6916 -2.5250 -7.1233 -4.1986 -16.6218 4.8796 23.0838 -21.0670 -38.7689 10.8206 -13.2360 -9.8866 -0.0000 -0.0000 0.0000 -8.5875 -18.7720 -23.2325 164.2393 -25.1951 -116.4565 -0.0000 -0.0000 12.3389 63.7495 -48.2666 -56.5414 -7.1250 0.0000 -0.0000 8.7314 -37.9738 -12.3211 -0.0000 -0.0000 0.0000 17.1992 18.0637 -52.2051 -164.2198 25.2217 -116.4482 0.0000 -0.0000 -31.8560 -49.6208 -38.5915 36.2585 7.1250 -0.0000 -0.0000 -37.5955 -78.8169 30.2223
